<svg width="674" height="154" viewBox="0 0 674 154" fill="none" xmlns="http://www.w3.org/2000/svg">
<path d="M531.418 74.5983C530.271 71.5995 528.507 69.2181 526.126 67.4542C523.744 65.602 520.834 64.72 517.482 64.72C514.924 64.72 512.543 65.2492 510.25 66.2194C508.045 67.1895 506.016 68.6007 504.34 70.4529C502.576 72.2169 501.253 74.3337 500.283 76.715C499.313 79.0964 498.872 81.7424 498.872 84.4765C498.872 87.2107 499.313 89.8567 500.283 92.2381C501.253 94.6194 502.665 96.648 504.34 98.412C506.104 100.176 508.133 101.587 510.338 102.557C512.631 103.528 515.013 104.057 517.57 104.057C520.481 104.057 522.95 103.616 524.891 102.646C526.831 101.675 528.331 100.529 529.477 99.2058C530.624 97.8828 531.417 96.7362 531.947 95.6778C532.035 95.4132 531.947 95.1486 531.77 94.9722L529.389 92.9436C529.389 92.9436 529.124 92.7672 528.948 92.8554C528.772 92.8554 528.683 92.9437 528.595 93.1201C527.713 94.5312 526.478 95.5896 524.891 96.4716C523.391 97.2654 521.451 97.7064 519.07 97.7064C516.688 97.7064 514.572 97.089 512.631 95.9424C510.691 94.7958 509.191 93.2082 508.045 91.1797C507.075 89.3275 506.545 87.2989 506.457 85.0939H532.74C532.74 85.0939 533.27 84.8293 533.27 84.5647C533.27 80.8604 532.652 77.597 531.418 74.5983ZM507.163 79.0082C507.78 76.715 508.839 74.8629 510.338 73.4517C512.014 71.9523 514.131 71.1585 516.865 71.1585C519.334 71.1585 521.186 71.9523 522.509 73.4517C523.744 74.7747 524.626 76.715 525.067 79.0082H507.163Z" fill="black"/>
<path d="M337.645 94.3542C337.645 94.3542 337.204 94.1778 337.027 94.3542C335.351 95.2362 333.146 95.8535 330.412 96.2945C327.766 96.6473 324.591 96.8237 321.063 96.8237H311.802V79.6249H316.918C319.387 79.6249 321.857 79.6249 324.326 79.8013C326.796 79.8013 329.177 80.2423 331.471 80.7715C331.647 80.7715 331.823 80.7715 331.912 80.6833C332.088 80.5951 332.088 80.4187 332.088 80.2423V72.569C332.088 72.569 332.088 72.2162 331.912 72.128C331.823 72.0398 331.647 71.9516 331.471 72.0398C329.089 72.569 326.708 72.9218 324.326 73.0982C321.857 73.0982 319.387 73.2746 316.918 73.2746H311.802V57.2224H320.534C322.915 57.2224 324.944 57.2224 326.62 57.487C328.295 57.5752 329.707 57.8398 330.941 58.2808C332.264 58.6336 333.411 59.0746 334.558 59.692C334.734 59.7802 334.999 59.692 335.175 59.692C335.351 59.6038 335.44 59.3392 335.351 59.1628L333.764 51.3131C333.764 51.3131 333.499 50.8721 333.235 50.8721H303.423C303.423 50.8721 303.071 50.8721 302.982 51.0485C302.894 51.2249 302.806 51.3131 302.894 51.4895C303.423 53.8708 303.776 56.2522 303.864 58.6336C303.953 61.1032 304.041 63.5727 304.041 66.0423V87.9156C304.041 90.3852 304.041 92.8548 303.864 95.3244C303.864 97.7939 303.423 100.175 302.894 102.468C302.894 102.645 302.894 102.821 302.982 102.909C303.071 103.086 303.247 103.086 303.423 103.086H335.616C335.616 103.086 336.145 102.909 336.145 102.645L337.733 94.7952C337.733 94.7952 337.733 94.3542 337.556 94.266L337.645 94.3542Z" fill="black"/>
<path d="M243.272 74.509C241.596 71.5103 239.391 69.1289 236.569 67.4531C233.746 65.6891 230.483 64.8071 226.867 64.8071C223.251 64.8071 220.075 65.6891 217.165 67.4531C214.342 69.2171 212.137 71.5103 210.462 74.509C208.874 77.5078 208.08 80.7711 208.08 84.4755C208.08 88.1799 208.874 91.4432 210.462 94.442C212.137 97.4408 214.342 99.7339 217.165 101.498C220.075 103.262 223.251 104.056 226.867 104.056C230.483 104.056 233.746 103.174 236.569 101.498C239.391 99.7339 241.596 97.4408 243.272 94.442C244.947 91.4432 245.741 88.0917 245.741 84.4755C245.741 80.8593 244.947 77.4196 243.272 74.509ZM226.778 97.7053C224.662 97.7053 222.721 97.1762 221.046 96.1178C219.37 94.9712 218.047 93.4718 217.077 91.4432C216.106 89.4147 215.665 87.1215 215.665 84.5637C215.665 82.0059 216.106 79.5364 217.077 77.596C218.047 75.5674 219.37 74.068 221.046 72.9214C222.721 71.7748 224.574 71.2457 226.778 71.2457C228.983 71.2457 230.924 71.7748 232.6 72.9214C234.275 73.9798 235.598 75.5674 236.569 77.596C237.539 79.5364 238.068 81.9177 238.068 84.5637C238.068 87.2097 237.539 89.5028 236.569 91.4432C235.598 93.4718 234.275 94.9712 232.6 96.1178C230.924 97.1762 228.983 97.7053 226.778 97.7053Z" fill="black"/>
<path d="M208.345 102.292C207.11 100.969 205.875 99.6461 204.64 98.2349C203.494 96.9119 202.435 95.5008 201.377 94.1778L192.293 80.9479C194.497 80.3305 196.438 79.4485 198.202 78.2138C200.23 76.8026 201.818 75.1268 202.965 73.0982C204.111 71.0696 204.729 68.7765 204.729 66.3069C204.729 63.1317 203.847 60.3976 201.994 58.1044C200.23 55.8112 197.937 53.959 195.027 52.8124C192.204 51.5777 189.029 50.8721 185.589 50.8721H171.566C171.566 50.8721 171.213 50.8721 171.125 51.0485C171.037 51.2249 170.948 51.3131 171.037 51.4895C171.566 53.8708 171.919 56.2522 172.007 58.6336C172.095 61.1032 172.183 63.5727 172.183 66.0423V87.9156C172.183 90.3852 172.183 92.8548 172.007 95.3244C172.007 97.7939 171.566 100.175 171.037 102.468C171.037 102.645 171.037 102.821 171.125 102.909C171.213 103.086 171.389 103.086 171.566 103.086H180.562C180.562 103.086 180.915 103.086 181.003 102.909C181.091 102.733 181.179 102.645 181.091 102.468C180.562 100.087 180.209 97.7057 180.033 95.3244C180.033 92.8548 179.945 90.3852 179.945 87.9156V81.9181H183.473L191.411 92.943C192.91 95.2362 194.145 97.1765 195.027 98.6759C195.909 100.175 196.702 101.586 197.232 102.821C197.32 102.998 197.496 103.174 197.761 103.174H207.992C207.992 103.174 208.433 103.086 208.521 102.821C208.521 102.645 208.521 102.38 208.433 102.204L208.345 102.292ZM183.649 75.5678H179.945V57.2224H183.649C187.883 57.2224 191.058 58.0162 193.263 59.5156C195.379 60.9267 196.438 63.1317 196.438 66.3069C196.438 69.4821 195.379 71.687 193.263 73.1864C191.058 74.774 187.883 75.5678 183.649 75.5678Z" fill="black"/>
<path d="M278.728 70.0999C279.698 68.9533 280.756 67.7185 281.903 66.6601C282.079 66.4837 282.079 66.3073 281.991 66.0427C281.991 65.8663 281.726 65.6899 281.462 65.6899H273.083C273.083 65.6899 272.642 65.7781 272.554 66.0427C272.201 66.8365 271.672 67.8067 271.054 68.9533C270.437 70.0117 269.643 71.3347 268.585 72.9223L264.263 79.008L258.442 70.8937C257.825 69.9235 257.207 69.0415 256.854 68.2477C256.502 67.4539 256.149 66.7483 255.796 66.1309C255.708 65.9545 255.531 65.7781 255.267 65.7781H246.623C246.623 65.7781 246.182 65.8663 246.094 66.1309C246.094 66.3073 246.094 66.5719 246.182 66.7483C247.946 68.6005 249.534 70.4527 251.121 72.4813L259.677 85.1819L251.474 97.0006C250.769 97.9708 250.063 98.8528 249.269 99.7348C248.475 100.529 247.593 101.499 246.623 102.381C246.447 102.557 246.447 102.734 246.535 102.998C246.535 103.175 246.8 103.351 247.064 103.351H255.443C255.443 103.351 255.884 103.175 255.972 102.998C256.325 102.116 256.766 101.234 257.384 100.176C258.001 99.1174 258.883 97.7944 259.941 96.2068L263.822 90.7385L267.615 96.0304C268.673 97.618 269.555 99.0292 270.172 100.088C270.79 101.234 271.319 102.204 271.76 102.998C271.848 103.175 272.025 103.351 272.289 103.351H281.021C281.021 103.351 281.462 103.175 281.55 102.998C281.55 102.822 281.55 102.557 281.462 102.381C280.58 101.499 279.786 100.617 278.992 99.7348C278.287 98.8528 277.493 97.8826 276.787 96.9124L268.497 84.6527L275.993 73.8042C276.964 72.5695 277.934 71.3347 278.904 70.1881L278.728 70.0999Z" fill="black"/>
<path d="M643.959 84.4764C643.959 80.772 643.342 77.5086 642.107 74.5099C640.96 71.5111 639.197 69.1298 636.815 67.3658C634.434 65.5136 631.523 64.6316 628.172 64.6316C625.614 64.6316 623.232 65.1608 620.939 66.131C618.734 67.1012 616.706 68.5124 615.03 70.3645C613.266 72.1285 611.943 74.2453 610.973 76.6267C610.003 79.008 609.562 81.654 609.562 84.3882C609.562 87.1223 610.003 89.7683 610.973 92.1497C611.943 94.5311 613.354 96.5596 615.03 98.3236C616.794 100.088 618.823 101.499 621.028 102.469C623.321 103.439 625.702 103.968 628.26 103.968C631.17 103.968 633.64 103.527 635.58 102.557C637.521 101.587 639.02 100.44 640.167 99.1174C641.313 97.7944 642.107 96.6478 642.636 95.5894C642.724 95.3248 642.636 95.0602 642.46 94.8838L640.078 92.8553C640.078 92.8553 639.814 92.6789 639.637 92.7671C639.461 92.7671 639.373 92.8553 639.285 93.0317C638.403 94.4429 637.168 95.5012 635.58 96.3832C634.081 97.177 632.141 97.618 629.759 97.618C627.378 97.618 625.261 97.0006 623.321 95.854C621.38 94.7075 619.881 93.1199 618.734 91.0913C617.764 89.2391 617.235 87.2105 617.147 85.0056H643.43C643.43 85.0056 643.959 84.741 643.959 84.4764ZM617.852 79.008C618.47 76.7149 619.528 74.8627 621.028 73.4515C622.703 71.9521 624.82 71.1583 627.554 71.1583C630.024 71.1583 631.876 71.9521 633.199 73.4515C634.434 74.7745 635.316 76.7149 635.757 79.008H617.852Z" fill="black"/>
<path d="M671.037 92.9437C671.037 90.4741 670.507 88.3573 669.361 86.8579C668.214 85.3585 666.891 84.1238 665.216 83.2418C663.628 82.3598 662.04 81.566 660.365 80.8604C658.601 80.1548 657.013 79.361 655.602 78.479C654.367 77.6852 653.838 76.6268 653.838 75.1275C653.838 73.7163 654.367 72.8343 655.337 72.2169C656.396 71.5113 657.807 71.1585 659.659 71.1585C661.247 71.1585 662.658 71.5995 664.069 72.4815C665.48 73.2753 666.45 74.5101 667.156 76.0094C667.156 76.1858 667.421 76.3622 667.685 76.3622H667.95C667.95 76.3622 668.479 76.1858 668.479 75.833L669.273 69.1299C669.273 69.1299 669.273 68.8653 669.184 68.6889C668.567 67.8951 667.42 67.1013 665.921 66.2194C664.334 65.2492 662.305 64.72 659.747 64.72C657.454 64.72 655.337 65.0728 653.397 65.8666C651.456 66.6604 649.957 67.8069 648.81 69.3945C647.664 70.9821 647.135 73.0107 647.135 75.3039C647.135 77.5088 647.664 79.4492 648.722 80.9486C649.869 82.3598 651.192 83.5064 652.779 84.3884C654.367 85.1821 655.955 85.9759 657.542 86.6815C659.394 87.4753 660.982 88.2691 662.305 89.2393C663.54 90.0331 664.157 91.1797 664.157 92.679C664.157 94.2666 663.628 95.5014 662.481 96.3834C661.423 97.2654 659.924 97.7064 658.071 97.7064C656.748 97.7064 655.514 97.4418 654.455 96.9126C653.397 96.2952 652.427 95.5896 651.633 94.7958C650.839 94.002 650.222 93.2083 649.781 92.4145C649.34 91.5325 649.075 90.9151 649.075 90.4741C649.075 90.2095 648.811 90.0331 648.546 90.0331H648.281C648.281 90.0331 647.752 90.2095 647.752 90.4741L646.782 97.7946C646.782 97.7946 646.782 97.971 646.782 98.0592C647.135 98.853 647.84 99.735 648.81 100.617C649.869 101.587 651.192 102.381 652.691 102.998C654.279 103.616 656.043 103.969 657.983 103.969C660.276 103.969 662.393 103.528 664.334 102.734C666.274 101.852 667.861 100.617 669.096 98.9412C670.331 97.2654 670.948 95.1486 670.948 92.7673L671.037 92.9437Z" fill="black"/>
<path d="M493.404 95.3243C493.404 92.8547 493.316 90.3852 493.316 87.9156V65.7776C493.316 65.7776 493.316 65.4248 493.139 65.3366C493.051 65.2484 492.875 65.1603 492.698 65.2485L483.878 67.1006C483.878 67.1006 483.437 67.3652 483.437 67.6298V68.0708C483.437 68.0708 483.437 68.2472 483.437 68.3354C484.055 69.3056 484.496 70.2758 484.848 71.246C485.201 72.2162 485.466 73.5391 485.642 75.0385C485.819 76.5379 485.907 78.3901 485.907 80.7715V87.9156C485.907 90.3852 485.907 92.8547 485.73 95.3243C485.73 97.7939 485.289 100.175 484.76 102.468C484.76 102.645 484.76 102.821 484.848 102.909C484.937 103.086 485.113 103.086 485.289 103.086H493.933C493.933 103.086 494.286 103.086 494.374 102.909C494.462 102.733 494.55 102.645 494.462 102.468C493.933 100.087 493.58 97.7057 493.404 95.3243Z" fill="black"/>
<path d="M479.38 65.9541C479.38 65.9541 479.38 65.9541 479.292 65.9541C479.204 65.9541 479.116 65.9541 479.028 65.8659C478.146 65.4249 477.087 65.2485 475.676 65.2485C473.03 65.2485 470.825 66.0423 468.973 67.5417C467.65 68.6883 466.68 70.2759 466.062 71.9516V66.3069C466.062 66.3069 466.062 65.9541 465.886 65.8659C465.798 65.7777 465.621 65.6895 465.445 65.7777L456.625 67.6299C456.625 67.6299 456.184 67.8945 456.184 68.1591V68.6001C456.184 68.6001 456.184 68.7765 456.184 68.8647C456.801 69.8349 457.242 70.8051 457.595 71.7753C457.948 72.7454 458.213 74.0684 458.389 75.5678C458.565 77.0672 458.654 78.9194 458.654 81.3007V88.4449C458.654 90.9144 458.654 93.384 458.477 95.8536C458.477 98.3231 458.036 100.705 457.507 102.998C457.507 103.174 457.507 103.35 457.595 103.439C457.683 103.615 457.86 103.615 458.036 103.615H466.68C466.68 103.615 467.033 103.615 467.121 103.439C467.209 103.262 467.297 103.174 467.209 102.998C466.68 100.616 466.327 98.2349 466.151 95.8536C466.151 93.384 466.062 90.9144 466.062 88.4449V86.3281C466.151 83.6821 466.503 81.3007 467.033 79.184C467.562 77.0672 468.356 75.3914 469.414 74.1566C470.472 73.01 471.883 72.3926 473.736 72.3926C474.97 72.3926 476.029 72.569 476.911 72.9218C477.705 73.2746 478.498 73.9802 479.116 75.1268C479.204 75.3032 479.38 75.3914 479.557 75.3914H479.91C479.91 75.3914 480.439 75.1268 480.439 74.8622V67.0125C480.439 67.0125 480.351 66.5715 480.086 66.4833L479.38 65.9541Z" fill="black"/>
<path d="M371.513 70.0999C372.483 68.9533 373.541 67.7185 374.688 66.6601C374.864 66.4837 374.864 66.3073 374.776 66.0427C374.776 65.8663 374.511 65.6899 374.247 65.6899H365.868C365.868 65.6899 365.427 65.7781 365.339 66.0427C364.986 66.8365 364.457 67.8067 363.839 68.9533C363.222 70.0117 362.428 71.3347 361.37 72.9223L357.048 79.008L351.227 70.8937C350.609 69.9235 349.992 69.0415 349.639 68.2477C349.286 67.4539 348.934 66.7483 348.581 66.1309C348.493 65.9545 348.316 65.7781 348.052 65.7781H339.408C339.408 65.7781 338.967 65.8663 338.879 66.1309C338.879 66.3073 338.879 66.5719 338.967 66.7483C340.731 68.6005 342.319 70.4527 343.906 72.4813L352.462 85.1819L344.259 97.0006C343.554 97.9708 342.848 98.8528 342.054 99.7348C341.26 100.529 340.378 101.499 339.408 102.381C339.232 102.557 339.232 102.734 339.32 102.998C339.32 103.175 339.585 103.351 339.849 103.351H348.228C348.228 103.351 348.669 103.175 348.757 102.998C349.11 102.116 349.551 101.234 350.168 100.176C350.786 99.1174 351.668 97.7944 352.726 96.2068L356.607 90.7385L360.4 96.0304C361.458 97.618 362.34 99.0292 362.957 100.088C363.575 101.234 364.104 102.204 364.545 102.998C364.633 103.175 364.809 103.351 365.074 103.351H373.806C373.806 103.351 374.247 103.175 374.335 102.998C374.335 102.822 374.335 102.557 374.247 102.381C373.365 101.499 372.571 100.617 371.777 99.7348C371.072 98.8528 370.278 97.8826 369.572 96.9124L361.282 84.6527L368.778 73.8042C369.749 72.5695 370.719 71.3347 371.689 70.1881L371.513 70.0999Z" fill="black"/>
<path d="M494.815 55.5467L489.347 50.0784C489.347 50.0784 488.817 49.902 488.553 50.0784L483.084 55.5467C483.084 55.5467 482.908 56.0759 483.084 56.3405L488.553 61.8089C488.553 61.8089 488.817 61.9853 488.906 61.9853C488.994 61.9853 489.17 61.9853 489.258 61.8089L494.727 56.3405C494.727 56.3405 494.903 56.0759 494.903 55.9877C494.903 55.8995 494.903 55.7231 494.727 55.6349L494.815 55.5467Z" fill="black"/>
<path d="M607.533 95.765C607.533 95.765 607.533 95.2358 607.357 95.0594L604.975 93.0308C604.975 93.0308 604.711 92.8544 604.534 92.9426C604.358 92.9426 604.27 93.0308 604.182 93.2072C603.3 94.6184 602.065 95.6768 600.477 96.5588C598.978 97.3526 597.037 97.7935 594.656 97.7935C592.539 97.7935 590.423 97.2643 588.482 96.206C586.542 95.1476 584.954 93.56 583.719 91.5314C582.573 89.591 581.955 87.2097 581.955 84.5637C581.955 81.9177 582.396 79.5364 583.367 77.596C584.337 75.5674 585.572 74.068 587.247 72.9214C588.923 71.7748 590.864 71.2457 593.157 71.2457C596.067 71.2457 598.272 71.863 599.948 73.0096C601.712 74.1562 603.035 75.4792 603.917 77.0668C604.005 77.2432 604.182 77.3314 604.358 77.3314H604.799C604.799 77.3314 605.328 77.0668 605.328 76.8022L605.505 69.2171C605.505 69.2171 605.505 68.8643 605.328 68.7761C604.005 67.6295 602.329 66.7475 600.301 65.9537C598.272 65.1599 595.891 64.8071 593.069 64.8071C590.511 64.8071 588.129 65.3363 585.836 66.3065C583.631 67.2767 581.603 68.6879 579.839 70.5401C578.075 72.304 576.752 74.4208 575.782 76.8022C574.811 79.1836 574.37 81.8295 574.37 84.5637C574.37 87.2979 574.811 89.9438 575.782 92.3252C576.752 94.7066 578.163 96.7352 579.839 98.4991C581.603 100.263 583.631 101.674 585.836 102.644C588.129 103.615 590.511 104.144 593.069 104.144C595.979 104.144 598.449 103.703 600.389 102.733C602.329 101.763 603.829 100.616 604.975 99.2929C606.122 97.9699 606.916 96.8234 607.445 95.765H607.533Z" fill="black"/>
<path d="M452.127 84.4764C452.127 80.772 451.509 77.5086 450.274 74.5099C449.128 71.5111 447.364 69.1298 444.982 67.3658C442.601 65.6018 439.69 64.6316 436.339 64.6316C433.781 64.6316 431.4 65.1608 429.107 66.131C426.902 67.1012 424.873 68.5124 423.197 70.3645C421.433 72.1285 420.11 74.2453 419.14 76.6267C418.17 79.008 417.729 81.654 417.729 84.3882C417.729 87.1223 418.17 89.7683 419.14 92.1497C420.11 94.5311 421.521 96.5596 423.197 98.3236C424.961 100.088 426.99 101.499 429.195 102.469C431.488 103.439 433.869 103.968 436.427 103.968C439.338 103.968 441.807 103.527 443.748 102.557C445.688 101.587 447.187 100.44 448.334 99.1174C449.481 97.7944 450.274 96.6478 450.804 95.5894C450.892 95.3248 450.804 95.0602 450.627 94.8838L448.246 92.8553C448.246 92.8553 447.981 92.6789 447.805 92.7671C447.628 92.7671 447.54 92.8553 447.452 93.0317C446.57 94.4429 445.335 95.5012 443.748 96.3832C442.248 97.177 440.308 97.618 437.926 97.618C435.545 97.618 433.428 97.0006 431.488 95.854C429.548 94.7075 428.048 93.1199 426.902 91.0913C425.931 89.2391 425.402 87.2105 425.314 85.0056H451.597C451.597 85.0056 452.127 84.741 452.127 84.4764ZM426.02 79.008C426.637 76.7149 427.695 74.8627 429.195 73.4515C430.871 71.9521 432.987 71.1583 435.722 71.1583C438.191 71.1583 440.043 71.9521 441.366 73.4515C442.601 74.7745 443.483 76.7149 443.924 79.008H426.02Z" fill="black"/>
<path d="M412.614 74.4219C411.114 71.4231 409.086 69.1299 406.44 67.366C403.794 65.602 400.883 64.72 397.532 64.72C392.945 64.72 389.417 66.5722 387.036 70.1001V65.6902C387.036 65.6902 387.036 65.3374 386.859 65.2492C386.771 65.161 386.595 65.0728 386.418 65.161L377.599 67.0131C377.599 67.0131 377.158 67.2777 377.158 67.5423V67.9833C377.158 67.9833 377.158 68.1597 377.158 68.2479C377.775 69.2181 378.216 70.1883 378.569 71.1585C378.922 72.1287 379.186 73.4517 379.363 74.9511C379.539 76.4504 379.627 78.3026 379.627 80.684V105.115C379.627 107.585 379.627 110.054 379.451 112.524C379.451 114.993 379.01 117.375 378.481 119.668C378.481 119.844 378.481 120.021 378.569 120.109C378.657 120.197 378.833 120.285 379.01 120.285H387.653C387.653 120.285 388.006 120.285 388.094 120.109C388.182 119.933 388.271 119.844 388.182 119.668C387.653 117.287 387.3 114.905 387.124 112.524C387.124 110.054 387.036 107.585 387.036 105.115V98.5002C387.036 98.5002 387.124 98.6766 387.212 98.7648C387.741 99.5586 388.535 100.352 389.417 101.146C390.387 101.94 391.534 102.646 392.857 103.175C394.268 103.704 395.944 103.969 397.884 103.969C401.148 103.969 403.97 103.087 406.528 101.411C409.086 99.6468 411.114 97.3536 412.525 94.3548C413.937 91.4443 414.73 88.0927 414.73 84.3002C414.73 80.5076 414.025 77.156 412.525 74.1573L412.614 74.4219ZM397.443 71.1585C400.442 71.1585 402.735 72.3051 404.499 74.6865C406.263 77.0678 407.233 80.3312 407.233 84.4765C407.233 88.6219 406.263 91.8853 404.323 94.1784C402.471 96.4716 399.913 97.7064 396.65 97.7064C393.651 97.7064 391.358 96.8244 389.682 94.9722C388.006 93.12 387.124 90.6505 387.124 87.5635V83.1536C387.212 81.125 387.741 79.1846 388.447 77.4206C389.241 75.5685 390.387 74.1573 391.887 72.9225C393.386 71.7759 395.238 71.1585 397.443 71.1585Z" fill="black"/>
<path d="M569.784 95.3248C569.784 92.8553 569.696 90.3857 569.696 87.9161V82.8006C569.696 80.5956 569.52 78.3906 569.167 76.2739C568.814 74.1571 568.197 72.2167 567.315 70.4527C566.433 68.6887 565.11 67.2776 563.346 66.2192C561.582 65.1608 559.377 64.6316 556.643 64.6316C554.438 64.6316 552.674 64.8962 551.262 65.4254C549.939 65.9546 548.793 66.7484 547.911 67.7186C547.293 68.336 546.852 69.1297 546.323 69.9235V65.6018C546.323 65.6018 546.323 65.249 546.147 65.1608C546.059 65.0726 545.882 64.9844 545.706 65.0726L536.886 66.9248C536.886 66.9248 536.445 67.1894 536.445 67.454V67.895C536.445 67.895 536.445 68.0714 536.445 68.1596C537.062 69.1298 537.503 70.0999 537.856 71.0701C538.209 72.0403 538.474 73.3633 538.65 74.8627C538.826 76.3621 538.915 78.2142 538.915 80.5956V87.7397C538.915 90.2093 538.915 92.6789 538.738 95.1484C538.738 97.618 538.297 99.9994 537.768 102.293C537.768 102.469 537.768 102.645 537.856 102.734C537.944 102.91 538.121 102.91 538.297 102.91H546.941C546.941 102.91 547.293 102.91 547.382 102.734C547.47 102.557 547.558 102.469 547.47 102.293C546.941 99.9112 546.588 97.5298 546.411 95.1484C546.411 92.6789 546.323 90.2093 546.323 87.7397V82.977C546.411 80.9484 546.764 79.008 547.293 77.1558C547.823 75.3919 548.793 73.8925 550.028 72.7459C551.262 71.5993 553.203 71.0701 555.672 71.0701C557.26 71.0701 558.495 71.4229 559.288 72.0403C560.17 72.7459 560.788 73.6279 561.229 74.6863C561.67 75.8329 561.934 77.0677 562.023 78.4788C562.111 79.89 562.199 81.3012 562.199 82.6242V87.7397C562.199 90.2093 562.199 92.6789 562.023 95.1484C562.023 97.618 561.582 99.9994 561.052 102.293C561.052 102.469 561.052 102.645 561.141 102.734C561.229 102.91 561.405 102.91 561.582 102.91H570.225C570.225 102.91 570.578 102.91 570.666 102.734C570.754 102.557 570.843 102.469 570.754 102.293C570.225 99.9112 569.872 97.5298 569.696 95.1484L569.784 95.3248Z" fill="black"/>
<path d="M116.403 104.127C112.875 102.187 109.876 96.1012 106.966 93.0143C102.115 87.7223 95.5879 85.7819 88.532 85.4291L84.8276 85.7819V85.4291C90.8251 82.6068 97.4401 81.5484 103.349 78.6378C111.199 74.8453 118.961 66.731 121.518 58.2638C124.87 46.9744 122.4 34.2737 129.015 24.0426C129.544 23.2489 130.779 21.9259 131.044 21.2203C131.397 20.2501 130.603 19.4563 129.633 19.4563C127.428 19.4563 123.194 21.3967 121.166 22.3669C106.877 28.8936 91.9717 39.7421 83.0636 52.7073C78.0363 60.0278 71.686 72.6403 70.0102 81.372C68.9518 86.5757 70.9804 90.4565 72.0388 95.4838C74.6847 107.302 75.6549 121.238 85.2686 129.705C87.8264 131.91 97.4401 138.437 100.527 138.79C101.409 138.878 102.556 138.79 102.644 137.643C102.82 136.408 101.056 135.173 100.439 134.203C97.9692 130.322 99.0276 126.265 98.6748 122.032C97.7929 111.536 90.4723 107.038 84.122 99.8056C82.9754 98.4826 81.8288 97.0714 80.7704 95.6602C80.8586 95.572 82.358 96.7186 82.5344 96.895C90.5605 103.245 98.6748 111.007 109.788 109.066C111.552 108.802 116.756 107.214 118.167 106.244C120.019 104.921 117.285 104.48 116.491 104.039L116.403 104.127ZM76.0959 81.1074C76.8897 79.3434 78.3009 77.6676 79.5357 76.1682C81.476 73.7869 83.8574 71.4937 85.7096 69.0241C89.6786 63.644 92.6773 57.2937 96.3817 51.7371C102.203 43.0936 110.934 33.7445 120.284 29.07C120.989 28.7172 121.43 28.4526 122.312 28.5408C119.313 35.0675 112.346 38.0663 107.054 42.388C102.291 46.2688 98.2339 51.2961 95.3233 56.6763C94.9705 57.3819 92.6773 61.5272 93.2065 62.0564C94.6177 61.7918 96.1171 60.4688 97.3519 59.4986C101.762 56.0589 105.378 52.8837 110.229 49.9731C112.169 48.8266 116.05 46.2688 117.902 45.5632C118.167 45.475 119.225 45.2986 119.225 45.5632C117.197 52.2663 109.347 54.7359 103.614 57.5583C97.9693 60.3806 92.0599 64.8788 87.7382 69.4651C87.2972 69.9061 85.2686 72.1993 85.7978 72.7285C86.5916 72.8167 87.2972 72.5521 88.0028 72.2875C91.0015 71.1409 94.1767 68.5831 97.2637 67.2601C101.144 65.4962 105.643 64.526 109.876 65.1434C110.141 65.4962 106.789 67.7011 106.436 67.9657C99.4686 72.1993 91.4425 72.2875 84.2984 76.3446C83.1518 76.962 76.8897 81.7248 76.0959 80.931V81.1074ZM86.5916 111.977C88.532 114.976 89.855 117.093 90.9133 120.532C91.1779 121.326 92.5891 126.706 92.4127 126.883C92.0599 127.235 90.0313 125.119 89.7667 124.854C85.3568 120.091 83.9456 113.829 81.7406 107.92C81.035 106.068 79.8885 104.304 79.5357 102.275C82.0934 105.362 84.4748 108.625 86.6798 111.977H86.5916ZM100.703 102.011C96.4699 99.8938 93.4711 95.9248 89.1494 93.8962L77.9481 89.3099C80.7705 89.5745 83.5928 90.2801 86.327 90.9857C91.0897 92.1323 96.4699 93.1906 100.527 96.1894C102.203 97.4242 106.613 101.305 107.495 102.981C107.671 103.334 107.848 103.598 107.759 104.039C105.29 103.863 102.908 103.157 100.703 102.099V102.011Z" fill="black"/>
<path d="M65.4241 55.2657C65.4241 55.2657 65.7769 55.2657 66.2179 55.2657C66.6589 55.2657 66.9235 55.2657 67.0117 55.2657C70.2751 54.3837 71.7744 53.2371 75.126 50.7675C84.9161 43.6234 97.3522 37.2731 101.321 25.1016C102.379 21.8382 104.496 10.4606 103.614 7.46181C103.35 6.57982 102.82 5.60963 101.674 5.96243C100.527 6.31522 99.9981 8.3438 99.3807 9.40219C96.823 13.1947 92.5894 13.9003 88.885 15.8407C79.6241 20.7799 78.3012 29.3352 74.3322 37.9787C73.6266 39.5662 72.7446 41.1538 71.8626 42.7414C71.6862 42.7414 72.2154 40.8892 72.2154 40.6246C74.8614 30.7463 78.7422 20.2507 72.5682 10.8134C71.598 9.31399 68.0701 5.16864 66.6589 4.19845C66.3061 3.93385 66.0415 3.93385 65.8651 4.19845C65.8651 4.19845 65.7769 4.19845 65.6887 4.19845C64.1893 5.08044 60.7496 9.31399 59.7794 10.8134C53.6055 20.2507 57.5744 30.7463 60.1322 40.6246C60.1322 40.8892 60.6614 42.6532 60.485 42.7414C59.603 41.242 58.8092 39.6544 58.0154 37.9787C53.9582 29.247 52.7235 20.7799 43.4626 15.8407C39.7582 13.8121 35.5247 13.1947 32.9669 9.40219C32.2613 8.432 31.8203 6.31522 30.6737 5.96243C29.6153 5.60963 29.0861 6.57982 28.7333 7.46181C27.7632 10.3724 29.9681 21.8382 31.0265 25.1016C34.9955 37.2731 47.4315 43.7116 57.2216 50.7675C60.6614 53.2371 62.0725 54.3837 65.3359 55.2657H65.4241ZM84.4751 30.8345C86.4155 27.8358 87.9149 25.8072 90.649 23.4258C91.2664 22.8966 95.5882 19.4569 95.941 19.5451C96.382 19.7215 95.2354 22.4556 95.1472 22.8084C92.5012 28.7178 87.2975 32.5103 82.7993 36.9203C81.3881 38.3315 80.1533 40.0072 78.4776 41.1538C80.2415 37.6259 82.3583 34.0979 84.5633 30.7463L84.4751 30.8345ZM64.4539 24.3078C64.7185 23.1612 65.4241 20.7799 66.2179 18.6631C67.0117 20.7799 67.7173 23.1612 67.9819 24.3078C69.0403 29.1588 67.9819 34.5389 67.0999 39.3898C66.8353 40.9774 66.4825 42.6532 66.2179 44.2408C65.8651 42.6532 65.6005 41.0656 65.3359 39.3898C64.4539 34.5389 63.3955 29.1588 64.4539 24.3078ZM49.8129 36.9203C45.3147 32.5103 40.111 28.7178 37.465 22.8084C37.2886 22.4556 36.1421 19.7215 36.6712 19.5451C37.024 19.4569 41.3458 22.8966 41.9632 23.4258C44.6974 25.8072 46.1967 27.8358 48.1371 30.8345C50.3421 34.1861 52.4589 37.6259 54.2228 41.242C52.5471 40.0954 51.3123 38.4197 49.9011 37.0085L49.8129 36.9203Z" fill="black"/>
<path d="M66.2177 98.4834C64.1009 99.5418 58.9854 115.329 58.5444 116.741C57.486 120.18 56.8686 123.62 57.045 127.06C57.045 129.706 57.7506 133.146 59.2499 138.173C60.6611 142.759 63.2189 147.081 65.0711 149.11C65.6885 149.815 66.835 149.815 67.4524 149.11C69.2164 147.081 71.8624 142.847 73.1854 138.173C74.6848 133.146 75.3904 129.706 75.3904 127.06C75.5668 123.62 75.0376 120.18 73.891 116.741C73.45 115.418 68.3344 99.63 66.2177 98.4834ZM68.0698 130.059C67.8052 131.205 67.0114 133.675 66.2177 135.792C65.4239 133.675 64.6301 131.205 64.3655 130.059C63.3071 125.208 64.3655 119.828 65.2475 114.977C65.5121 113.301 65.8649 111.625 66.2177 109.949C66.5705 111.625 66.9233 113.301 67.1879 114.977C68.0698 119.828 69.1282 125.208 68.0698 130.059Z" fill="black"/>
<path d="M119.314 83.401C119.314 86.7525 125.223 92.9265 125.223 92.9265C125.223 92.9265 131.132 86.7525 131.132 83.401C131.132 80.0494 125.223 73.8755 125.223 73.8755C125.223 73.8755 119.314 80.0494 119.314 83.401Z" fill="black"/>
<path d="M4.3024 83.401C4.3024 86.7525 10.2117 92.9265 10.2117 92.9265C10.2117 92.9265 16.1211 86.7525 16.1211 83.401C16.1211 80.0494 10.2117 73.8755 10.2117 73.8755C10.2117 73.8755 4.3024 80.0494 4.3024 83.401Z" fill="black"/>
<path d="M63.2191 81.9021C61.1023 71.3182 53.3408 56.4126 46.5495 48.0337C37.7296 37.097 21.3246 25.4547 8.09472 20.692C6.85993 20.251 2.36178 18.3988 2.00898 20.6038C1.83259 21.4858 4.30217 24.3963 4.91957 25.4547C11.9755 37.7144 6.77174 53.5902 15.1506 65.9381C19.5606 72.4648 25.3817 77.0511 32.7022 79.9617C37.8178 81.9903 43.2861 83.0487 48.3134 85.43C42.4041 85.43 35.701 85.9592 30.5855 89.2226C24.5879 93.1033 22.1184 100.247 17.1792 103.599C16.1208 104.305 12.7693 105.275 15.2388 106.598C17.3556 107.744 23.1767 109.332 25.6463 109.508C32.8786 110.038 40.1109 105.275 45.5793 101.129C47.3433 99.8065 49.1954 97.9543 50.9594 96.7195C51.3122 96.5431 51.5768 96.1903 52.0178 96.2785C48.7544 100.953 44.4327 104.657 40.8165 108.979C37.7296 112.595 35.701 115.418 34.9954 120.18C34.378 124.502 35.5246 129.618 33.4078 133.587C32.7022 134.821 28.3805 138.614 32.3494 138.702C34.9954 138.702 39.9346 135.615 42.2277 134.116C46.6377 131.293 50.4302 128.383 53.0762 123.708C57.8389 115.418 59.1619 104.922 61.2787 95.6611C62.4253 90.8102 64.3657 86.8412 63.3955 81.9021H63.2191ZM50.4302 110.038C48.4899 115.065 46.2849 123.708 41.6103 126.707C41.3457 126.884 41.0811 127.06 40.7283 126.972C40.9047 126.002 40.9929 125.031 41.1693 124.061C42.4923 117.27 46.8141 111.272 50.783 105.716C51.5768 104.569 52.547 103.334 53.5172 102.276C52.8116 104.922 51.4886 107.392 50.4302 110.038ZM52.8116 90.3692C49.3718 91.5158 45.9321 92.9269 42.8451 94.6909C39.4936 96.5431 37.024 99.3655 33.6724 101.218C31.1146 102.717 28.1159 103.864 25.2053 104.04C24.9407 103.775 26.5283 101.835 26.7929 101.57C32.4376 95.0437 37.7296 93.6325 45.7557 91.5158C48.8427 90.722 52.0178 89.7518 55.1048 89.399L52.8998 90.3692H52.8116ZM56.8688 81.1083C56.1632 81.1083 55.5458 80.8437 54.9284 80.5791C51.4886 78.9033 48.578 75.9045 44.7855 74.4052C39.3172 72.2002 33.3196 71.9356 28.0277 68.9368C27.1457 68.4076 24.0587 66.5554 23.4413 65.8499C23.3531 65.7617 23.0886 65.2325 23.0886 65.2325C23.6177 65.2325 24.1469 65.0561 24.7643 65.0561C28.4687 64.8797 32.0848 65.8499 35.4364 67.3492C38.6998 68.7604 42.2277 71.4946 45.3147 72.6412C47.8725 73.5232 47.9607 72.6412 46.4613 70.789C43.9917 67.6138 37.906 62.7629 34.5544 60.4697C27.6749 55.8834 17.4438 54.2076 14.0041 45.8287L15.2388 45.6523C20.7072 48.7393 26.2637 51.8262 31.2911 55.707C32.5258 56.6772 38.788 62.4101 39.8464 62.1455C40.0228 62.1455 40.111 61.8809 40.111 61.7045C40.1992 60.9107 37.2004 55.4424 36.583 54.384C34.0252 50.1504 30.5855 46.0051 26.7929 42.8299C23.6177 40.184 19.737 38.1554 16.7382 35.5094C16.0326 34.892 10.4761 29.5119 11.1817 28.7181C11.9755 28.8945 12.3283 28.8063 13.0339 29.1591C20.619 32.687 29.1743 41.4187 34.2016 48.0337C39.229 54.825 42.7569 62.7629 47.7843 69.466C50.4302 72.994 54.2228 76.2573 56.6042 80.1381C56.6924 80.3145 57.1334 81.0201 57.0452 81.1965L56.8688 81.1083Z" fill="black"/>
</svg>
